<svg width="24" height="24" viewBox="0 0 24 24" fill="none" xmlns="http://www.w3.org/2000/svg">
<path opacity="0.6" d="M12.2588 4.2041C13.5523 4.24658 14.8167 4.61043 15.9365 5.26465C17.1309 5.96248 18.118 6.96561 18.7969 8.1709L18.917 8.3916C19.4983 9.50414 19.8017 10.7423 19.7998 12L19.7959 12.251C19.7773 12.8359 19.694 13.4051 19.5537 13.9512V13.9521C19.1204 15.6258 18.1434 17.1087 16.7764 18.167C15.4092 19.2253 13.7289 19.7997 12 19.7998C10.2711 19.7997 8.59081 19.2253 7.22364 18.167C5.85651 17.1087 4.87967 15.6259 4.44629 13.9521V13.9512C4.28235 13.3135 4.19961 12.6575 4.2002 11.999C4.20033 10.6094 4.56405 9.30153 5.20313 8.16992C5.88199 6.96496 6.86928 5.96232 8.06348 5.26465C9.25799 4.56681 10.6166 4.19963 12 4.2002L12.2588 4.2041ZM9.64746 16.0146C9.7521 16.3035 9.8669 16.5736 9.99121 16.8223C10.5721 17.9841 11.2629 18.5301 11.8779 18.5938L12 18.5996C12.6442 18.5995 13.3892 18.0614 14.0088 16.8223C14.1328 16.5743 14.2462 16.3045 14.3506 16.0166C13.5757 16.1389 12.7899 16.2014 12 16.2002C11.1997 16.2002 10.414 16.1354 9.64746 16.0146ZM6.12207 15.002C6.56144 15.8613 7.18558 16.6198 7.95801 17.2178C8.37254 17.5387 8.82174 17.8063 9.29395 18.0186C9.15869 17.8094 9.03268 17.5888 8.91797 17.3594C8.67503 16.8735 8.46697 16.3279 8.29785 15.7373C7.54847 15.547 6.82186 15.3003 6.12207 15.002ZM17.876 15.0029C17.1699 15.3038 16.443 15.5497 15.7012 15.7383C15.5321 16.3285 15.3248 16.8738 15.082 17.3594C14.9674 17.5887 14.8403 17.8085 14.7051 18.0176C15.1773 17.8054 15.6265 17.5387 16.041 17.2178C16.8132 16.62 17.4366 15.8618 17.876 15.0029ZM7.79981 12C7.79981 11.4981 7.82458 11.0059 7.87207 10.5283C7.18235 10.2227 6.53358 9.84229 5.93457 9.39844C5.59184 10.1964 5.39942 11.0753 5.39942 12L5.41309 12.418C5.43375 12.7492 5.48163 13.0778 5.55176 13.4023C6.3268 13.8127 7.14531 14.151 7.99903 14.4092C7.87021 13.648 7.79982 12.8378 7.79981 12ZM12 5.39941C11.3558 5.39941 10.6108 5.93776 9.99121 7.17676C9.63855 7.88208 9.35867 8.75989 9.1875 9.75098C10.0723 10.0418 11.0177 10.2002 12 10.2002H12.001C12.9632 10.2015 13.9107 10.0457 14.8105 9.75C14.6394 8.75941 14.3613 7.88179 14.0088 7.17676C13.3892 5.93778 12.6442 5.39952 12 5.39941ZM9.29297 5.98242C9.08039 6.07798 8.87134 6.18255 8.66895 6.30078C7.80339 6.80645 7.0673 7.50223 6.5127 8.33203C6.99048 8.70025 7.50585 9.02166 8.05274 9.28906C8.24463 8.2971 8.53971 7.39716 8.91797 6.64063C9.03247 6.41164 9.158 6.1913 9.29297 5.98242ZM14.707 5.9834C14.8418 6.19202 14.9677 6.41195 15.082 6.64063C15.4603 7.3971 15.7544 8.29721 15.9463 9.28906C16.4882 9.02439 17.004 8.7041 17.4863 8.33203C16.9318 7.5024 16.1965 6.80639 15.3311 6.30078C15.1288 6.18264 14.9194 6.0789 14.707 5.9834ZM9 12C9.00002 12.978 9.10168 13.901 9.28125 14.7305C10.1601 14.906 11.069 15 12 15H12.001C12.9166 15.0014 13.8259 14.9087 14.7168 14.7305C14.8964 13.901 15 12.9782 15 12C15 11.6455 14.9855 11.2982 14.96 10.96C14.0073 11.2487 13.011 11.3998 12 11.3984V11.3994C10.9702 11.3994 9.97651 11.2441 9.03907 10.96C9.0135 11.2981 9 11.6455 9 12ZM16.2002 12C16.2002 12.8378 16.1288 13.648 16 14.4092C16.8437 14.1539 17.663 13.8165 18.4473 13.4014C18.5447 12.9498 18.5996 12.4815 18.5996 12V11.999C18.601 11.1021 18.4164 10.218 18.0645 9.39844C17.4593 9.84713 16.8094 10.2242 16.127 10.5264C16.1746 11.0045 16.2002 11.4974 16.2002 12Z" fill="#6A4040"/>
</svg>
