<svg width="24" height="24" viewBox="0 0 24 24" fill="none" xmlns="http://www.w3.org/2000/svg">
<g opacity="0.2">
<line x1="6.00195" y1="18.9413" x2="19.9413" y2="5.00195" stroke="#6A4040" stroke-width="1.5" stroke-linecap="round"/>
<path d="M17.5713 6.55273C17.9632 6.98392 18.3083 7.45863 18.5967 7.9707L18.7168 8.19141C19.2981 9.30395 19.6015 10.5421 19.5996 11.7998L19.5957 12.0508C19.5771 12.6358 19.4938 13.2049 19.3535 13.751V13.752C18.9202 15.4256 17.9432 16.9085 16.5762 17.9668C15.209 19.0251 13.5287 19.5995 11.7998 19.5996C10.0709 19.5995 8.39061 19.0251 7.02344 17.9668C6.86084 17.8409 6.70403 17.7088 6.55273 17.5713L7.40332 16.7207C7.518 16.8232 7.63556 16.9229 7.75781 17.0176C8.17234 17.3385 8.62154 17.6062 9.09375 17.8184C8.95849 17.6092 8.83248 17.3886 8.71777 17.1592C8.52703 16.7777 8.35866 16.3591 8.21289 15.9111L9.51562 14.6084C10.2586 14.7326 11.0214 14.7998 11.7998 14.7998H11.8008C12.7164 14.8012 13.6257 14.7085 14.5166 14.5303C14.6962 13.7008 14.7998 12.778 14.7998 11.7998C14.7998 11.4453 14.7853 11.098 14.7598 10.7598C14.1863 10.9336 13.5968 11.0551 12.998 11.126L14.5596 9.56445C14.5763 9.55905 14.5936 9.5553 14.6104 9.5498C14.6086 9.53967 14.6063 9.52964 14.6045 9.51953L15.6172 8.50684C15.6635 8.69707 15.7078 8.89091 15.7461 9.08887C16.288 8.82419 16.8038 8.5039 17.2861 8.13184C17.1147 7.87543 16.9242 7.6335 16.7197 7.4043L17.5713 6.55273ZM9.44727 15.8145C9.5519 16.1033 9.6667 16.3734 9.79102 16.6221C10.3719 17.7839 11.0628 18.3299 11.6777 18.3936L11.7998 18.3994C12.444 18.3993 13.189 17.8612 13.8086 16.6221C13.9326 16.3741 14.046 16.1044 14.1504 15.8164C13.3755 15.9387 12.5897 16.0012 11.7998 16C10.9995 16 10.2138 15.9352 9.44727 15.8145ZM17.6758 14.8027C16.9697 15.1036 16.2428 15.3495 15.501 15.5381C15.3319 16.1283 15.1246 16.6736 14.8818 17.1592C14.7672 17.3885 14.6401 17.6083 14.5049 17.8174C14.9771 17.6052 15.4263 17.3385 15.8408 17.0176C16.613 16.4199 17.2364 15.6616 17.6758 14.8027ZM12.0586 4.00391C13.3521 4.04639 14.6165 4.41024 15.7363 5.06445C15.9869 5.21084 16.2276 5.37164 16.459 5.54395L15.5986 6.4043C15.4469 6.2974 15.2919 6.19466 15.1309 6.10059C14.9286 5.98245 14.7192 5.87871 14.5068 5.7832C14.6416 5.99183 14.7675 6.21175 14.8818 6.44043C14.9569 6.59053 15.0264 6.7472 15.0947 6.9082L14.1689 7.83398C14.0599 7.52639 13.94 7.2393 13.8086 6.97656C13.189 5.73758 12.444 5.19933 11.7998 5.19922C11.1556 5.19922 10.4106 5.73757 9.79102 6.97656C9.43836 7.68188 9.15847 8.5597 8.9873 9.55078C9.87211 9.84163 10.8175 10 11.7998 10H11.8008C11.8699 10.0001 11.9389 9.99664 12.0078 9.99512L10.8506 11.1523C10.1578 11.0875 9.48484 10.9555 8.83887 10.7598C8.8133 11.0979 8.7998 11.4453 8.7998 11.7998C8.79981 12.2593 8.82282 12.7065 8.86523 13.1377L7.79785 14.2051C7.66946 13.4451 7.59962 12.6362 7.59961 11.7998C7.59961 11.2979 7.62438 10.8057 7.67188 10.3281C6.98215 10.0225 6.33338 9.6421 5.73438 9.19824C5.39164 9.99624 5.19922 10.8751 5.19922 11.7998L5.21289 12.2178C5.23356 12.549 5.28143 12.8777 5.35156 13.2021C6.12543 13.6119 6.94259 13.95 7.79492 14.208L6.8457 15.1572C6.53324 15.0479 6.22462 14.9308 5.92188 14.8018C6.06348 15.0787 6.2265 15.3436 6.40527 15.5977L5.54492 16.458C4.94533 15.6533 4.50095 14.7362 4.24609 13.752V13.751C4.08215 13.1133 3.99941 12.4573 4 11.7988C4.00014 10.4092 4.36385 9.10134 5.00293 7.96973C5.68179 6.76476 6.66909 5.76212 7.86328 5.06445C9.05779 4.36661 10.4164 3.99943 11.7998 4L12.0586 4.00391ZM17.8643 9.19824C17.2591 9.64693 16.6092 10.024 15.9268 10.3262C15.9744 10.8043 16 11.2972 16 11.7998C16 12.6376 15.9286 13.4478 15.7998 14.209C16.6435 13.9537 17.4628 13.6164 18.2471 13.2012C18.3445 12.7496 18.3994 12.2813 18.3994 11.7998V11.7988C18.4008 10.9019 18.2162 10.0178 17.8643 9.19824ZM9.09277 5.78223C8.88019 5.87779 8.67114 5.98235 8.46875 6.10059C7.6032 6.60626 6.8671 7.30204 6.3125 8.13184C6.79028 8.50005 7.30565 8.82146 7.85254 9.08887C8.04443 8.0969 8.33951 7.19696 8.71777 6.44043C8.83227 6.21144 8.9578 5.9911 9.09277 5.78223Z" fill="#6A4040"/>
</g>
</svg>
