<svg width="16" height="16" viewBox="0 0 16 16" fill="none" xmlns="http://www.w3.org/2000/svg">
<path d="M2 3.49981C2 2.37489 2 1.81243 2.28647 1.41813C2.37899 1.29078 2.49098 1.1788 2.61832 1.08628C3.01262 0.799805 3.57508 0.799805 4.7 0.799805H10.8L14 3.9998V12.4998C14 13.6247 14 14.1872 13.7135 14.5815C13.621 14.7088 13.509 14.8208 13.3817 14.9133C12.9874 15.1998 12.4249 15.1998 11.3 15.1998H4.7C3.57508 15.1998 3.01262 15.1998 2.61832 14.9133C2.49098 14.8208 2.37899 14.7088 2.28647 14.5815C2 14.1872 2 13.6247 2 12.4998V3.49981Z" fill="#8BD69C"/>
<path d="M7.30495 8.57648C7.3615 8.5027 7.38978 8.46581 7.3955 8.42374C7.39737 8.41001 7.39744 8.3961 7.39573 8.38236C7.39047 8.34023 7.36261 8.30303 7.30688 8.22863L5.81021 6.23032C5.74393 6.14184 5.7108 6.0976 5.71991 6.06078C5.72276 6.04927 5.72813 6.03854 5.73563 6.02937C5.75964 6 5.81491 6 5.92546 6H6.55043C6.64327 6 6.68969 6 6.73124 6.01596C6.74495 6.02122 6.75814 6.02774 6.77065 6.03541C6.8086 6.05868 6.83683 6.09552 6.89331 6.16921L7.42288 6.86019C7.60212 7.09852 7.75726 7.32403 7.91552 7.57463C7.96222 7.64858 7.98557 7.68555 8.01776 7.69291C8.02805 7.69526 8.03845 7.69556 8.04886 7.69381C8.08142 7.68833 8.10663 7.6531 8.15705 7.58263L9.16031 6.1806C9.21651 6.10208 9.2446 6.06281 9.28345 6.03792C9.29626 6.02972 9.30981 6.02275 9.32394 6.01711C9.36679 6 9.41507 6 9.51163 6H10.1079C10.2176 6 10.2725 6 10.2965 6.0292C10.304 6.03833 10.3094 6.04901 10.3123 6.06047C10.3215 6.09713 10.2889 6.14127 10.2237 6.22956L8.74937 8.22548C8.6954 8.29855 8.66841 8.33508 8.66314 8.37639C8.66142 8.38988 8.66142 8.40353 8.66315 8.41702C8.66845 8.45832 8.69547 8.49484 8.74949 8.56787L10.2308 10.5704C10.2961 10.6587 10.3288 10.7028 10.3196 10.7395C10.3167 10.751 10.3113 10.7616 10.3038 10.7708C10.2798 10.8 10.2249 10.8 10.115 10.8H9.49566C9.40268 10.8 9.35619 10.8 9.3146 10.784C9.30088 10.7787 9.28767 10.7722 9.27515 10.7645C9.23717 10.7412 9.20893 10.7042 9.15246 10.6304L8.67473 10.0055C8.47946 9.7404 8.31434 9.49762 8.14212 9.22572C8.0967 9.15402 8.074 9.11817 8.04233 9.11064C8.03221 9.10824 8.02191 9.10782 8.01163 9.10941C7.97946 9.11437 7.95413 9.14805 7.90348 9.2154L6.84139 10.6277C6.78497 10.7027 6.75676 10.7402 6.71856 10.7639C6.70596 10.7717 6.69267 10.7784 6.67884 10.7837C6.63693 10.8 6.59 10.8 6.49613 10.8H5.89247C5.78057 10.8 5.72463 10.8 5.70062 10.7704C5.69311 10.7611 5.68778 10.7503 5.68499 10.7387C5.67608 10.7016 5.71011 10.6572 5.77818 10.5684L7.30495 8.57648Z" fill="#FDFCF8"/>
<path opacity="0.4" d="M10.8008 0.799805L14.0008 3.9998H12.6008C11.8508 3.9998 11.4759 3.9998 11.213 3.80882C11.1281 3.74714 11.0534 3.67248 10.9918 3.58759C10.8008 3.32472 10.8008 2.94975 10.8008 2.19981V0.799805Z" fill="white"/>
</svg>
