<svg width="16" height="16" viewBox="0 0 16 16" fill="none" xmlns="http://www.w3.org/2000/svg">
<rect opacity="0.4" x="1.19922" y="2" width="13.6" height="8" rx="1.5" fill="#EBD7B5"/>
<path d="M1.19922 5.75968C1.1992 4.85969 1.19919 4.40969 1.42838 4.09423C1.50239 3.99236 1.59199 3.90276 1.69387 3.82875C2.00932 3.59956 2.45932 3.59958 3.35931 3.59961L4.91133 3.59967C5.33505 3.59969 5.54691 3.59969 5.74767 3.6527C5.81425 3.67028 5.87962 3.69214 5.94337 3.71814C6.13564 3.79655 6.3049 3.92397 6.64341 4.17882L7.22991 4.62036C7.56845 4.87523 7.73771 5.00266 7.93 5.08107C7.99376 5.10707 8.05913 5.12893 8.12571 5.14651C8.32649 5.19952 8.53836 5.19952 8.96211 5.19952H12.6392C13.5391 5.19952 13.9891 5.19952 14.3046 5.4287C14.4064 5.50271 14.496 5.5923 14.57 5.69418C14.7992 6.00962 14.7992 6.45959 14.7992 7.35953L14.7992 11.8396C14.7992 12.7395 14.7992 13.1895 14.57 13.5049C14.496 13.6068 14.4064 13.6964 14.3046 13.7704C13.9891 13.9996 13.5391 13.9996 12.6392 13.9996H3.3594C2.45948 13.9996 2.00952 13.9996 1.69408 13.7704C1.59221 13.6964 1.50262 13.6068 1.42861 13.505C1.19942 13.1895 1.19941 12.7396 1.19939 11.8396L1.19922 5.75968Z" fill="#F2BD84"/>
</svg>
