<svg width="20" height="20" viewBox="0 0 20 20" fill="none" xmlns="http://www.w3.org/2000/svg">
<path d="M2.5 3.70098C2.5 2.57606 2.5 2.0136 2.78647 1.6193C2.87899 1.49196 2.99098 1.37997 3.11832 1.28745C3.51262 1.00098 4.07508 1.00098 5.2 1.00098H13.5L17.5 5.00098V16.301C17.5 17.4259 17.5 17.9884 17.2135 18.3827C17.121 18.51 17.009 18.622 16.8817 18.7145C16.4874 19.001 15.9249 19.001 14.8 19.001H5.2C4.07508 19.001 3.51262 19.001 3.11832 18.7145C2.99098 18.622 2.87899 18.51 2.78647 18.3827C2.5 17.9884 2.5 17.4259 2.5 16.301V3.70098Z" fill="#E89675"/>
<g clip-path="url(#clip0_3969_62975)">
<g clip-path="url(#clip1_3969_62975)">
<path d="M12.9938 10.9986L11.6803 12.7233C11.6007 12.7985 11.5045 12.8361 11.3917 12.8361C11.279 12.8361 11.1828 12.7974 11.1032 12.72C11.0236 12.6426 10.9838 12.5475 10.9838 12.4348C10.9838 12.322 11.0236 12.2258 11.1032 12.1462L12.1977 10.7133L11.1032 9.28046C11.0236 9.20085 10.9838 9.10577 10.9838 8.99521C10.9838 8.88465 11.0236 8.78957 11.1032 8.70996C11.1828 8.63036 11.279 8.59056 11.3917 8.59056C11.5045 8.59056 11.6007 8.63036 11.6803 8.70996L12.9938 10.4281C13.0734 10.5077 13.1132 10.6028 13.1132 10.7133C13.1132 10.8239 13.0734 10.919 12.9938 10.9986ZM9.71675 13.6918C9.71232 13.7051 9.70569 13.7305 9.69684 13.7681C9.688 13.8057 9.68137 13.8311 9.67694 13.8444L9.65373 13.9141L9.62056 13.9837L9.57081 14.0368L9.50115 14.0832L9.4116 14.1064L9.29219 14.1164C9.18605 14.1164 9.08434 14.0611 8.98704 13.9506C8.88975 13.84 8.85437 13.7339 8.8809 13.6321L9.71675 7.74145C9.79193 7.45841 10.0042 7.31689 10.3536 7.31689C10.4509 7.31689 10.5161 7.36886 10.5493 7.47279C10.5824 7.57671 10.5835 7.68617 10.5526 7.80115L9.71675 13.6918ZM8.33031 12.72C8.25071 12.7974 8.15452 12.8361 8.04175 12.8361C7.92897 12.8361 7.83279 12.7985 7.75318 12.7233L6.43972 10.9986C6.36011 10.919 6.32031 10.8239 6.32031 10.7133C6.32031 10.6028 6.36011 10.5077 6.43972 10.4281L7.75318 8.70996C7.83279 8.63036 7.92897 8.59056 8.04175 8.59056C8.15452 8.59056 8.25071 8.63036 8.33031 8.70996C8.40991 8.78957 8.44972 8.88465 8.44972 8.99521C8.44972 9.10577 8.40991 9.20085 8.33031 9.28046L7.23576 10.7133L8.33031 12.1462C8.40991 12.2258 8.44972 12.322 8.44972 12.4348C8.44972 12.5475 8.40991 12.6426 8.33031 12.72Z" fill="white"/>
</g>
</g>
<path opacity="0.4" d="M13.5 1.00098L17.5 5.00098H15.3C14.5501 5.00098 14.1751 5.00098 13.9122 4.80999C13.8273 4.74831 13.7527 4.67366 13.691 4.58876C13.5 4.3259 13.5 3.95092 13.5 3.20098V1.00098Z" fill="white"/>
<defs>
<clipPath id="clip0_3969_62975">
<rect width="7.43164" height="7.43164" fill="white" transform="translate(6 6.99951)"/>
</clipPath>
<clipPath id="clip1_3969_62975">
<rect width="6.79287" height="6.7995" fill="white" transform="translate(6.32031 7.31641)"/>
</clipPath>
</defs>
</svg>
