<svg width="16" height="16" viewBox="0 0 16 16" fill="none" xmlns="http://www.w3.org/2000/svg">
<g opacity="0.6">
<path fill-rule="evenodd" clip-rule="evenodd" d="M1.82879 2.09476C1.59961 2.41019 1.59961 2.86016 1.59961 3.7601V12.2401C1.59961 13.14 1.59961 13.59 1.82879 13.9054C1.9028 14.0073 1.99239 14.0969 2.09427 14.1709C2.40971 14.4001 2.85967 14.4001 3.75961 14.4001H12.2396C13.1395 14.4001 13.5895 14.4001 13.905 14.1709C14.0068 14.0969 14.0964 14.0073 14.1704 13.9054C14.3996 13.59 14.3996 13.14 14.3996 12.2401V3.7601C14.3996 2.86016 14.3996 2.41019 14.1704 2.09476C14.0964 1.99288 14.0068 1.90329 13.905 1.82928C13.5895 1.6001 13.1395 1.6001 12.2396 1.6001H3.75961C2.85967 1.6001 2.40971 1.6001 2.09427 1.82928C1.99239 1.90329 1.9028 1.99288 1.82879 2.09476ZM7.1611 5.66326C7.1611 6.36088 6.60085 6.92641 5.90976 6.92641C5.21866 6.92641 4.65842 6.36088 4.65842 5.66326C4.65842 4.96563 5.21866 4.4001 5.90976 4.4001C6.60085 4.4001 7.1611 4.96563 7.1611 5.66326ZM3.78961 12.4001C3.47965 12.4001 3.32467 12.4001 3.25349 12.316C3.23117 12.2897 3.21477 12.2588 3.20543 12.2254C3.17563 12.119 3.2616 11.9888 3.43353 11.7285L5.14813 9.13228C5.28604 8.92346 5.35499 8.81905 5.44978 8.79877C5.47988 8.79234 5.51093 8.79185 5.5412 8.79736C5.63656 8.81469 5.70866 8.91692 5.85285 9.12137L6.91968 10.6341C7.064 10.8387 7.13617 10.941 7.23159 10.9583C7.26189 10.9638 7.29295 10.9633 7.32306 10.9569C7.41789 10.9365 7.4868 10.8319 7.62464 10.6228L9.42051 7.89747C9.56467 7.67871 9.63675 7.56933 9.73453 7.5503C9.7655 7.54427 9.79735 7.54452 9.82822 7.55104C9.92569 7.57161 9.99607 7.68212 10.1368 7.90314L12.5768 11.7345C12.7415 11.9932 12.8239 12.1225 12.7933 12.2277C12.7837 12.2607 12.7672 12.2913 12.7449 12.3173C12.6738 12.4001 12.5215 12.4001 12.2168 12.4001H3.78961Z" fill="#202020"/>
</g>
</svg>
