<svg width="16" height="16" viewBox="0 0 16 16" fill="none" xmlns="http://www.w3.org/2000/svg">
<path d="M2 2.96078C2 2.06085 2 1.61088 2.22918 1.29544C2.3032 1.19357 2.39278 1.10398 2.49466 1.02996C2.8101 0.800781 3.26006 0.800781 4.16 0.800781H10.8L14 4.00078V13.0408C14 13.9407 14 14.3907 13.7708 14.7061C13.6968 14.808 13.6072 14.8976 13.5053 14.9716C13.1899 15.2008 12.7399 15.2008 11.84 15.2008H4.16C3.26006 15.2008 2.8101 15.2008 2.49466 14.9716C2.39278 14.8976 2.3032 14.808 2.22918 14.7061C2 14.3907 2 13.9407 2 13.0408V2.96078Z" fill="#F1B700"/>
<path d="M10.3615 5.96875C10.472 5.96875 10.5615 6.05829 10.5615 6.16875V10.6338C10.5615 10.7442 10.472 10.8338 10.3615 10.8338H9.9635C9.85304 10.8338 9.7635 10.7442 9.7635 10.6338V7.50175L8.33234 10.7151C8.3002 10.7873 8.22862 10.8338 8.14964 10.8338H7.85612C7.77726 10.8338 7.70577 10.7874 7.67356 10.7154L6.2355 7.50175V10.6337C6.2355 10.7442 6.14596 10.8338 6.0355 10.8338H5.6375C5.52704 10.8338 5.4375 10.7442 5.4375 10.6338V6.16875C5.4375 6.05829 5.52704 5.96875 5.6375 5.96875H6.16891C6.24775 5.96875 6.31924 6.01507 6.35145 6.08703L8.0065 9.78375L9.65464 6.0873C9.68679 6.0152 9.75835 5.96875 9.83731 5.96875H10.3615Z" fill="white"/>
<path opacity="0.4" d="M10.8008 0.800781L14.0008 4.00078H12.2408C11.6408 4.00078 11.3408 4.00078 11.1306 3.84799C11.0626 3.79865 11.0029 3.73893 10.9536 3.67101C10.8008 3.46072 10.8008 3.16074 10.8008 2.56078V0.800781Z" fill="white"/>
</svg>
