<svg width="14" height="14" viewBox="0 0 14 14" fill="none" xmlns="http://www.w3.org/2000/svg">
<path d="M1.75 2.59019C1.75 1.80275 1.75 1.40903 1.95053 1.13302C2.0153 1.04388 2.09369 0.965491 2.18283 0.900727C2.45883 0.700195 2.85256 0.700195 3.64 0.700195H9.45L12.25 3.5002V11.4102C12.25 12.1976 12.25 12.5914 12.0495 12.8674C11.9847 12.9565 11.9063 13.0349 11.8172 13.0997C11.5412 13.3002 11.1474 13.3002 10.36 13.3002H3.64C2.85256 13.3002 2.45883 13.3002 2.18283 13.0997C2.09369 13.0349 2.0153 12.9565 1.95053 12.8674C1.75 12.5914 1.75 12.1976 1.75 11.4102V2.59019Z" fill="#F06465"/>
<path d="M8.87513 7.50595C8.61909 7.49751 8.34686 7.51725 8.03769 7.55587C7.62782 7.30304 7.35188 6.95575 7.15588 6.44552L7.17393 6.37164L7.19485 6.28427C7.26737 5.97848 7.30634 5.75532 7.31798 5.53032C7.32675 5.36047 7.3173 5.20378 7.28711 5.05855C7.23145 4.74499 7.00965 4.56165 6.73016 4.55035C6.46957 4.53972 6.23006 4.68529 6.16883 4.9108C6.06915 5.27546 6.1275 5.75533 6.33885 6.57371C6.06965 7.2155 5.71393 7.96793 5.47526 8.38758C5.15664 8.55187 4.90853 8.70131 4.70005 8.86694C4.42512 9.08571 4.25342 9.31054 4.20619 9.54668C4.18325 9.65615 4.21783 9.79918 4.2966 9.9164C4.38599 10.0493 4.52059 10.1357 4.68201 10.1482C5.08934 10.1797 5.58995 9.75971 6.14269 8.81128C6.19818 8.79273 6.25687 8.77316 6.32856 8.74887L6.52928 8.68107C6.65628 8.63823 6.74838 8.60753 6.83946 8.57801C7.23415 8.44948 7.53269 8.36835 7.80425 8.32214C8.27619 8.57481 8.82167 8.74044 9.18903 8.74044C9.4923 8.74044 9.69723 8.58324 9.77127 8.3358C9.83621 8.11856 9.78477 7.86656 9.64511 7.72724C9.50073 7.58539 9.23524 7.51759 8.87513 7.50595ZM4.6923 9.672V9.66593L4.69449 9.66019C4.71919 9.5964 4.75086 9.53553 4.78894 9.47871C4.86113 9.36772 4.96048 9.251 5.08361 9.12669C5.14973 9.06007 5.21854 8.99513 5.29934 8.92227C5.31738 8.90607 5.43276 8.80335 5.45434 8.78311L5.64275 8.6077L5.50579 8.82579C5.29799 9.15705 5.11009 9.39555 4.94918 9.55107C4.88998 9.60841 4.83786 9.65058 4.79569 9.67774C4.78177 9.68704 4.76704 9.69505 4.75167 9.70169C4.74475 9.70456 4.73868 9.70624 4.73261 9.70675C4.7262 9.70756 4.71969 9.70669 4.71372 9.70422C4.70737 9.70156 4.70195 9.69708 4.69814 9.69135C4.69432 9.68562 4.69229 9.67888 4.6923 9.672ZM6.81652 5.99028L6.7784 6.05775L6.75479 5.98387C6.7025 5.81807 6.66404 5.56827 6.65342 5.34293C6.64127 5.08655 6.66168 4.93272 6.74264 4.93272C6.85633 4.93272 6.90844 5.11489 6.91249 5.38898C6.9162 5.62984 6.87842 5.88048 6.81652 5.99028ZM6.71852 6.97632L6.74433 6.90801L6.77958 6.97211C6.97676 7.33036 7.23263 7.62924 7.51397 7.83755L7.57469 7.88242L7.50064 7.8976C7.22521 7.95461 6.96866 8.04029 6.61783 8.18181C6.65443 8.16696 6.25316 8.33125 6.15162 8.37021L6.06307 8.40411L6.1103 8.3218C6.31861 7.95916 6.51123 7.52366 6.71852 6.97632ZM9.37709 8.2626C9.24452 8.31489 8.95913 8.26816 8.45666 8.05362L8.32915 7.99931L8.46746 7.98918C8.86046 7.96 9.13876 7.98159 9.30102 8.04097C9.37018 8.06627 9.41622 8.09815 9.43663 8.13458C9.44737 8.15183 9.45098 8.17257 9.4467 8.19244C9.44242 8.2123 9.43059 8.22972 9.41369 8.24101C9.40297 8.25046 9.39055 8.25778 9.37709 8.2626Z" fill="white"/>
<path opacity="0.4" d="M9.44922 0.700195L12.2492 3.5002H10.7092C10.1843 3.5002 9.92177 3.5002 9.73777 3.36651C9.67834 3.32333 9.62608 3.27107 9.58291 3.21164C9.44922 3.02764 9.44922 2.76516 9.44922 2.2402V0.700195Z" fill="white"/>
</svg>
