<svg width="14" height="14" viewBox="0 0 14 14" fill="none" xmlns="http://www.w3.org/2000/svg">
<path d="M1.75 2.59019C1.75 1.80275 1.75 1.40903 1.95053 1.13302C2.0153 1.04388 2.09369 0.965491 2.18283 0.900727C2.45883 0.700195 2.85256 0.700195 3.64 0.700195H9.45L12.25 3.5002V11.4102C12.25 12.1976 12.25 12.5914 12.0495 12.8674C11.9847 12.9565 11.9063 13.0349 11.8172 13.0997C11.5412 13.3002 11.1474 13.3002 10.36 13.3002H3.64C2.85256 13.3002 2.45883 13.3002 2.18283 13.0997C2.09369 13.0349 2.0153 12.9565 1.95053 12.8674C1.75 12.5914 1.75 12.1976 1.75 11.4102V2.59019Z" fill="#FB7F12"/>
<path d="M8.88741 6.35982C8.88741 6.60893 8.82866 6.84394 8.71115 7.06485C8.59365 7.28576 8.40564 7.46672 8.14712 7.60773C7.88861 7.74404 7.55724 7.81219 7.15302 7.81219H6.40468C6.32736 7.81219 6.26468 7.87487 6.26468 7.95219V9.66039C6.26468 9.73771 6.202 9.80039 6.12468 9.80039H5.60094C5.52362 9.80039 5.46094 9.73771 5.46094 9.66039V5.04039C5.46094 4.96307 5.52362 4.90039 5.60094 4.90039H7.15302C7.52904 4.90039 7.84631 4.96619 8.10482 5.0978C8.36804 5.22471 8.5631 5.39862 8.69 5.61953C8.82161 5.84044 8.88741 6.0872 8.88741 6.35982ZM7.15302 7.15651C7.45854 7.15651 7.6865 7.08835 7.83691 6.95205C7.98732 6.81104 8.06252 6.61363 8.06252 6.35982C8.06252 5.82399 7.75935 5.55607 7.15302 5.55607H6.40468C6.32736 5.55607 6.26468 5.61875 6.26468 5.69607V7.01651C6.26468 7.09383 6.32736 7.15651 6.40468 7.15651H7.15302Z" fill="white"/>
<path opacity="0.4" d="M9.44922 0.700195L12.2492 3.5002H10.7092C10.1843 3.5002 9.92177 3.5002 9.73777 3.36651C9.67834 3.32333 9.62608 3.27107 9.58291 3.21164C9.44922 3.02764 9.44922 2.76516 9.44922 2.2402V0.700195Z" fill="white"/>
</svg>
