<svg width="20" height="20" viewBox="0 0 20 20" fill="none" xmlns="http://www.w3.org/2000/svg">
<path d="M16 8.5C16 9.03043 15.7893 9.53914 15.4142 9.91421C15.0391 10.2893 14.5304 10.5 14 10.5C13.4696 10.5 12.9609 10.2893 12.5858 9.91421C12.2107 9.53914 12 9.03043 12 8.5C12 7.96957 12.2107 7.46086 12.5858 7.08579C12.9609 6.71071 13.4696 6.5 14 6.5C14.5304 6.5 15.0391 6.71071 15.4142 7.08579C15.7893 7.46086 16 7.96957 16 8.5ZM13.9292 14.13C14.1453 14.6526 14.302 15.1978 14.3962 15.7554C14.4731 16.2162 14.4192 16.6354 14.2731 17H17.9985C18.5508 17 19.0085 16.5477 18.8985 16.0062C18.7356 15.2034 18.3781 14.453 17.8572 13.8209C17.3364 13.1887 16.6683 12.6942 15.9115 12.3808C14.9037 11.9632 13.7869 11.8868 12.7315 12.1631C13.2291 12.7535 13.6331 13.4169 13.9292 14.13Z" fill="#7698B0"/>
<path d="M7.21146 9.5C8.00711 9.5 8.77018 9.18393 9.33278 8.62132C9.89539 8.05871 10.2115 7.29565 10.2115 6.5C10.2115 5.70435 9.89539 4.94129 9.33278 4.37868C8.77018 3.81607 8.00711 3.5 7.21146 3.5C6.41581 3.5 5.65275 3.81607 5.09014 4.37868C4.52753 4.94129 4.21146 5.70435 4.21146 6.5C4.21146 7.29565 4.52753 8.05871 5.09014 8.62132C5.65275 9.18393 6.41581 9.5 7.21146 9.5ZM11.4522 12.7569L11.4953 12.8008C12.3541 13.6767 12.9246 14.7949 13.1284 16.0046C13.2199 16.5492 12.7638 17 12.2115 17H2.20993C1.65762 17 1.20146 16.5492 1.293 16.0046C1.47573 14.9183 1.95402 13.9032 2.67545 13.0706C3.39687 12.2381 4.33358 11.6202 5.38289 11.2848C6.43221 10.9493 7.55362 10.9093 8.6242 11.1689C9.69478 11.4286 10.6732 11.978 11.4522 12.7569Z" fill="#0C9AFF"/>
</svg>
