<svg width="14" height="14" viewBox="0 0 14 14" fill="none" xmlns="http://www.w3.org/2000/svg">
<path d="M1.75 2.59019C1.75 1.80275 1.75 1.40903 1.95053 1.13302C2.0153 1.04388 2.09369 0.965491 2.18283 0.900727C2.45883 0.700195 2.85256 0.700195 3.64 0.700195H9.45L12.25 3.5002V11.4102C12.25 12.1976 12.25 12.5914 12.0495 12.8674C11.9847 12.9565 11.9063 13.0349 11.8172 13.0997C11.5412 13.3002 11.1474 13.3002 10.36 13.3002H3.64C2.85256 13.3002 2.45883 13.3002 2.18283 13.0997C2.09369 13.0349 2.0153 12.9565 1.95053 12.8674C1.75 12.5914 1.75 12.1976 1.75 11.4102V2.59019Z" fill="#FBB622"/>
<path fill-rule="evenodd" clip-rule="evenodd" d="M4.60137 5.02322C4.55078 5.10155 4.55078 5.21328 4.55078 5.43674L4.55078 6.46971C4.55078 6.58145 4.55078 6.63731 4.57607 6.67648C4.58424 6.68912 4.59413 6.70025 4.60537 6.70944C4.64018 6.73789 4.68984 6.73789 4.78916 6.73789H4.97457C5.07388 6.73789 5.12354 6.73789 5.15835 6.70944C5.1696 6.70025 5.17948 6.68912 5.18765 6.67648C5.21294 6.63731 5.21294 6.58145 5.21294 6.46971V5.9135C5.21294 5.80177 5.21294 5.7459 5.23824 5.70674C5.2464 5.69409 5.25629 5.68297 5.26753 5.67378C5.30235 5.64532 5.352 5.64532 5.45132 5.64532H6.43132C6.53064 5.64532 6.5803 5.64532 6.61511 5.67378C6.62635 5.68297 6.63624 5.69409 6.64441 5.70674C6.6697 5.7459 6.6697 5.80177 6.6697 5.9135V8.78728C6.6697 8.89901 6.6697 8.95488 6.64441 8.99404C6.63624 9.00669 6.62635 9.01782 6.61511 9.027C6.5803 9.05546 6.53064 9.05546 6.43132 9.05546H5.64997C5.55065 9.05546 5.50099 9.05546 5.46618 9.08391C5.45494 9.0931 5.44505 9.10422 5.43688 9.11687C5.41159 9.15604 5.41159 9.2119 5.41159 9.32363V9.53222C5.41159 9.64395 5.41159 9.69981 5.43688 9.73898C5.44505 9.75162 5.45494 9.76275 5.46618 9.77194C5.50099 9.80039 5.55065 9.80039 5.64997 9.80039H8.35159C8.45091 9.80039 8.50057 9.80039 8.53538 9.77194C8.54662 9.76275 8.55651 9.75162 8.56468 9.73898C8.58997 9.69981 8.58997 9.64395 8.58997 9.53222V9.32363C8.58997 9.2119 8.58997 9.15604 8.56468 9.11687C8.55651 9.10422 8.54662 9.0931 8.53538 9.08391C8.50057 9.05546 8.45091 9.05546 8.35159 9.05546H7.57024C7.47092 9.05546 7.42126 9.05546 7.38645 9.027C7.37521 9.01782 7.36532 9.00669 7.35715 8.99404C7.33186 8.95488 7.33186 8.89901 7.33186 8.78728V5.9135C7.33186 5.80177 7.33186 5.7459 7.35715 5.70674C7.36532 5.69409 7.37521 5.68297 7.38645 5.67378C7.42126 5.64532 7.47092 5.64532 7.57024 5.64532H8.55024C8.64956 5.64532 8.69922 5.64532 8.73403 5.67378C8.74527 5.68297 8.75516 5.69409 8.76333 5.70674C8.78862 5.7459 8.78862 5.80177 8.78862 5.9135V6.46971C8.78862 6.58145 8.78862 6.63731 8.81391 6.67648C8.82208 6.68912 8.83197 6.70025 8.84321 6.70944C8.87802 6.73789 8.92768 6.73789 9.027 6.73789H9.2124C9.31172 6.73789 9.36138 6.73789 9.39619 6.70944C9.40743 6.70025 9.41732 6.68912 9.42549 6.67648C9.45078 6.63731 9.45078 6.58145 9.45078 6.46971V5.43674C9.45078 5.21328 9.45078 5.10155 9.4002 5.02322C9.38386 4.99792 9.36409 4.97568 9.3416 4.9573C9.27198 4.90039 9.17266 4.90039 8.97402 4.90039H5.02754C4.8289 4.90039 4.72959 4.90039 4.65996 4.9573C4.63748 4.97568 4.6177 4.99792 4.60137 5.02322Z" fill="white"/>
<path opacity="0.4" d="M9.44922 0.700195L12.2492 3.5002H10.7092C10.1843 3.5002 9.92177 3.5002 9.73777 3.36651C9.67834 3.32333 9.62608 3.27107 9.58291 3.21164C9.44922 3.02764 9.44922 2.76516 9.44922 2.2402V0.700195Z" fill="white"/>
</svg>
