<svg width="16" height="16" viewBox="0 0 16 16" fill="none" xmlns="http://www.w3.org/2000/svg">
<g opacity="0.6">
<path fill-rule="evenodd" clip-rule="evenodd" d="M1.82879 2.09427C1.59961 2.40971 1.59961 2.85967 1.59961 3.75961V12.2396C1.59961 13.1395 1.59961 13.5895 1.82879 13.905C1.9028 14.0068 1.99239 14.0964 2.09427 14.1704C2.40971 14.3996 2.85967 14.3996 3.75961 14.3996H12.2396C13.1395 14.3996 13.5895 14.3996 13.905 14.1704C14.0068 14.0964 14.0964 14.0068 14.1704 13.905C14.3996 13.5895 14.3996 13.1395 14.3996 12.2396V3.75961C14.3996 2.85967 14.3996 2.40971 14.1704 2.09427C14.0964 1.99239 14.0068 1.9028 13.905 1.82879C13.5895 1.59961 13.1395 1.59961 12.2396 1.59961H3.75961C2.85967 1.59961 2.40971 1.59961 2.09427 1.82879C1.99239 1.9028 1.9028 1.99239 1.82879 2.09427ZM6.80231 10.7226C6.44905 10.9365 5.99961 10.6797 5.99961 10.264V5.73526C5.99961 5.31954 6.44905 5.06277 6.80231 5.27665L10.5423 7.541C10.8854 7.74873 10.8854 8.25049 10.5423 8.45822L6.80231 10.7226Z" fill="#6A4040"/>
</g>
</svg>
