<svg width="16" height="16" viewBox="0 0 16 16" fill="none" xmlns="http://www.w3.org/2000/svg">
<path d="M2 3.49981C2 2.37489 2 1.81243 2.28647 1.41813C2.37899 1.29078 2.49098 1.1788 2.61832 1.08628C3.01262 0.799805 3.57508 0.799805 4.7 0.799805H10.8L14 3.9998V12.4998C14 13.6247 14 14.1872 13.7135 14.5815C13.621 14.7088 13.509 14.8208 13.3817 14.9133C12.9874 15.1998 12.4249 15.1998 11.3 15.1998H4.7C3.57508 15.1998 3.01262 15.1998 2.61832 14.9133C2.49098 14.8208 2.37899 14.7088 2.28647 14.5815C2 14.1872 2 13.6247 2 12.4998V3.49981Z" fill="#82A7CB"/>
<path d="M6.40433 10.8C6.31205 10.8 6.26591 10.8 6.2292 10.7792C6.21722 10.7724 6.20617 10.7641 6.19632 10.7545C6.16613 10.725 6.15331 10.6807 6.12767 10.592L4.85278 6.18401C4.83126 6.10959 4.8205 6.07238 4.83427 6.04453C4.83867 6.03565 4.84467 6.02766 4.85198 6.02097C4.87491 6 4.91364 6 4.99111 6H5.43048C5.52258 6 5.56863 6 5.60529 6.02074C5.61726 6.02751 5.6283 6.0358 5.63815 6.04539C5.66833 6.07479 5.68121 6.119 5.70698 6.20742L6.38524 8.53461C6.42954 8.70073 6.47385 8.86948 6.51815 9.07741C6.54773 9.21624 6.56252 9.28565 6.58564 9.29226C6.59287 9.29432 6.59977 9.29438 6.60703 9.29242C6.63025 9.28617 6.64612 9.21693 6.67788 9.07844C6.72493 8.87326 6.77223 8.7092 6.82464 8.53461L7.49686 6.20806C7.52248 6.11938 7.53529 6.07504 7.56548 6.04555C7.57534 6.03592 7.58639 6.02761 7.59837 6.02082C7.63509 6 7.68124 6 7.77354 6H8.23727C8.32999 6 8.37635 6 8.41317 6.02096C8.42518 6.0278 8.43625 6.03617 8.44612 6.04586C8.47634 6.07555 8.489 6.12015 8.51432 6.20934L9.17449 8.53461C9.22571 8.71506 9.27407 8.89846 9.3234 9.12237C9.35084 9.24691 9.36456 9.30917 9.38773 9.31562C9.39487 9.3176 9.40199 9.3176 9.40913 9.31562C9.43231 9.3092 9.44604 9.24707 9.47351 9.12282C9.5264 8.88355 9.57181 8.70922 9.62026 8.54118L10.3107 6.20633C10.3367 6.11835 10.3497 6.07436 10.3799 6.04513C10.3897 6.03559 10.4007 6.02735 10.4127 6.02062C10.4492 6 10.4951 6 10.5869 6H11.007C11.0849 6 11.1238 6 11.1467 6.02108C11.154 6.0278 11.16 6.03582 11.1644 6.04474C11.1781 6.07271 11.1672 6.11003 11.1452 6.18468L9.84669 10.5934C9.82074 10.6815 9.80777 10.7255 9.77761 10.7548C9.76777 10.7644 9.75674 10.7726 9.74479 10.7793C9.70819 10.8 9.66227 10.8 9.57042 10.8H9.2137C9.12102 10.8 9.07468 10.8 9.03787 10.7791C9.02586 10.7722 9.01479 10.7639 9.00493 10.7542C8.97471 10.7245 8.96203 10.6799 8.93668 10.5908L8.07134 7.54791C8.04688 7.46187 8.03464 7.41886 8.01269 7.413C8.006 7.41122 7.99896 7.4112 7.99226 7.41295C7.97029 7.41869 7.95784 7.46165 7.93293 7.54756L7.05045 10.5922C7.02477 10.6808 7.01193 10.7251 6.98175 10.7545C6.9719 10.7641 6.96085 10.7724 6.94887 10.7792C6.91218 10.8 6.86606 10.8 6.77383 10.8H6.40433Z" fill="white"/>
<path opacity="0.4" d="M10.8008 0.799805L14.0008 3.9998H12.6008C11.8508 3.9998 11.4759 3.9998 11.213 3.80882C11.1281 3.74714 11.0534 3.67248 10.9918 3.58759C10.8008 3.32472 10.8008 2.94975 10.8008 2.19981V0.799805Z" fill="white"/>
</svg>
